{"title":"Naruto Shippuuden - 335 [720p] [ENG-SUBBED] [GWC].mkv","uid":9092631,"size":95562658,"categoryP":"video","categoryS":"tv_shows","magnet":"?xt=urn:btih:5a2c410c36bf602f056c324148be3939f330c37a&amp;dn=Naruto+Shippuuden+-+335+%5B720p%5D+%5BENG-SUBBED%5D+%5BGWC%5D.mkv&amp;tr=udp%3A%2F%2Ftracker.openbittorrent.com%3A80&amp;tr=udp%3A%2F%2Fopen.demonii.com%3A1337&amp;tr=udp%3A%2F%2Ftracker.coppersurfer.tk%3A6969&amp;tr=udp%3A%2F%2Fexodus.desync.com%3A6969","seeders":1,"leechers":1,"uploader":"canc232","files":1,"time":1382631058,"description":"\nNaruto Shippuuden - 335 [720p] [ENG-SUBBED] [GWC]\n\nNaruto Shippuuden - Ep:335 - Each Their Own Leaf\n\n\n\nTHUMBNAIL IMAGE : &lt;a href=&quot;\nhttp://img42.imageshack.us/img42/2682/6f2p.jpg&quot; rel=&quot;nofollow&quot; target=&quot;_NEW&quot;&gt;\nhttp://img42.imageshack.us/img42/2682/6f2p.jpg&lt;/a&gt;\n\n\nMEDIA INFO :\n\nGeneral\nFormat : Matroska \nFile size : 91.1 MiB \nDuration : 23mn 9s \nOverall bit rate : 550 Kbps \nWriting application : mkvmerge v6.5.0 ('Isn't she lovely')\n\nVideo \nFormat : AVC \nFormat/Info : Advanced Video Codec \nFormat profile : &lt;a class=&quot;__cf_email__&quot; href=&quot;/cdn-cgi/l/email-protection&quot; data-cfemail=&quot;541c3d333c1418607a64&quot;&gt;[email&amp;#160;protected]&lt;/a&gt;&lt;script cf-hash='f9e31' type=&quot;text/javascript&quot;&gt;\n/* &lt;![CDATA[ */!function(){try{var t=&quot;currentScript&quot;in document?document.currentScript:function(){for(var t=document.getElementsByTagName(&quot;script&quot;),e=t.length;e--;)if(t[e].getAttribute(&quot;cf-hash&quot;))return t[e]}();if(t&amp;&amp;t.previousSibling){var e,r,n,i,c=t.previousSibling,a=c.getAttribute(&quot;data-cfemail&quot;);if(a){for(e=&quot;&quot;,r=parseInt(a.substr(0,2),16),n=2;a.length-n;n+=2)i=parseInt(a.substr(n,2),16)^r,e+=String.fromCharCode(i);e=document.createTextNode(e),c.parentNode.replaceChild(e,c)}}}catch(u){}}();/* ]]&gt; */&lt;/script&gt; \nFormat settings, CABAC : Yes \nDuration : 23mn 9s \nBit rate : 500 Kbps \nWidth : 1 280 pixels \nHeight : 720 pixels \nDisplay aspect ratio : 16:9 \nFrame rate mode : Constant \nFrame rate : 23.976 fps \nStream size : 80.0 MiB (88%) \nTitle : Naruto Shippuuden - 335 [720p] [ENG-SUBBED] [GWC] \nWriting library : x264 core \nLanguage : English \n\nAudio \nFormat : Vorbis \nDuration : 23mn 9s \nBit rate mode : Variable \nChannel(s) : 2 channels \nSampling rate : 44.1 KHz \nStream size : 9.28 MiB (10%) \nWriting library : aoTuV\n\nText \nFormat : ASS \nCodec ID : S_TEXT/ASS \nCodec ID/Info : Advanced Sub Station Alpha \nLanguage : English","torrent":{"xt":"urn:btih:5a2c410c36bf602f056c324148be3939f330c37a","amp;dn":"Naruto+Shippuuden+-+335+%5B720p%5D+%5BENG-SUBBED%5D+%5BGWC%5D.mkv","amp;tr":["udp%3A%2F%2Ftracker.openbittorrent.com%3A80","udp%3A%2F%2Fopen.demonii.com%3A1337","udp%3A%2F%2Ftracker.coppersurfer.tk%3A6969","udp%3A%2F%2Fexodus.desync.com%3A6969"],"infoHash":"5a2c410c36bf602f056c324148be3939f330c37a","infoHashBuffer":{"type":"Buffer","data":[90,44,65,12,54,191,96,47,5,108,50,65,72,190,57,57,243,48,195,122]},"announce":[],"urlList":[]}}